# xmcd
#
# Track frame offsets: 
#        150
#        26385
#        69087
#        111873
#        186837
#        211928
#
# Disc length: 3747 seconds
#
# Revision: 0
# Processed by: cddbd v1.5.2PL0 Copyright (c) Steve Scherf et al.
# Submitted via: ExactAudioCopy v0.95b4
#
DISCID=470ea106
DTITLE=Buddy Guy - Lie at Buddy Guy's Legends Disc 1
DYEAR=1900
DGENRE=Blues
TTITLE0=Everyday I Have the Blues
TTITLE1=Elevate Me Mama
TTITLE2=Drowning on Dry Land
TTITLE3=My Time After A While
TTITLE4=I'm Ready
TTITLE5=Damn Right I Got the Blues
EXTD=
EXTT0=
EXTT1=
EXTT2=
EXTT3=
EXTT4=
EXTT5=
PLAYORDER=
